<svg xmlns="http://www.w3.org/2000/svg" viewBox="0 0 64 64">
  <defs>
    <linearGradient id="g" x1="0" y1="0" x2="1" y2="1">
      <stop offset="0" stop-color="#0a84ff"/>
      <stop offset="1" stop-color="#0052cc"/>
    </linearGradient>
  </defs>
  <rect x="2" y="2" width="60" height="60" rx="12" fill="url(#g)"/>
  <g fill="#fff" transform="translate(10,12)">
    <path d="M12 0c1.1 0 2 .9 2 2v8l4 4 6-6a2 2 0 1 1 2.8 2.8l-6 6 4 4 6-6a2 2 0 1 1 2.8 2.8l-8.5 8.5a6 6 0 0 1-8.5 0L12 20l-4 4v8a2 2 0 1 1-4 0v-8a6 6 0 0 1 1.8-4.3L10 18l-2.3-2.3A6 6 0 0 1 6 11.3V2a2 2 0 0 1 2-2h4z"/>
  </g>
</svg>
