<?xml version="1.0" encoding="UTF-8"?><svg xmlns="http://www.w3.org/2000/svg" xmlns:xlink="http://www.w3.org/1999/xlink" viewBox="0 0 455.72 226.57"><defs><style>.cls-1{opacity:.26;}.cls-1,.cls-2,.cls-3,.cls-4,.cls-5,.cls-6{mix-blend-mode:multiply;}.cls-2{fill:url(#Degradado_sin_nombre_37-3);}.cls-3{fill:url(#Degradado_sin_nombre_37-4);}.cls-4{fill:url(#Degradado_sin_nombre_37-5);}.cls-5{fill:url(#Degradado_sin_nombre_10);}.cls-7{isolation:isolate;}.cls-8,.cls-9{fill:#1f140f;}.cls-10{fill:url(#Degradado_sin_nombre_37-2);}.cls-11{fill:url(#Degradado_sin_nombre_10-2);}.cls-12{fill:url(#Degradado_sin_nombre_10-3);}.cls-13{letter-spacing:.6em;}.cls-14{letter-spacing:.6em;}.cls-15{fill:#fff;stroke:#fff;stroke-miterlimit:10;stroke-width:.89px;}.cls-16{fill:url(#Degradado_sin_nombre_37);}.cls-9{font-family:Montserrat-Light, Montserrat;font-size:26.68px;font-weight:300;}</style><linearGradient id="Degradado_sin_nombre_37" x1="14.93" y1="167.36" x2="207.39" y2="167.36" gradientUnits="userSpaceOnUse"><stop offset="0" stop-color="#fa7598"/><stop offset="1" stop-color="#ffb0c0"/></linearGradient><linearGradient id="Degradado_sin_nombre_37-2" x1="359.38" y1="68.24" x2="448" y2="68.24" xlink:href="#Degradado_sin_nombre_37"/><linearGradient id="Degradado_sin_nombre_10" x1="7.93" y1="100.41" x2="450.36" y2="100.41" gradientUnits="userSpaceOnUse"><stop offset="0" stop-color="#d4bbe4"/><stop offset="1" stop-color="#a87bc9"/></linearGradient><linearGradient id="Degradado_sin_nombre_37-3" x1="46.65" y1="112.59" x2="418.09" y2="112.59" xlink:href="#Degradado_sin_nombre_37"/><linearGradient id="Degradado_sin_nombre_37-4" x1="307.49" y1="91.36" x2="447.31" y2="91.36" xlink:href="#Degradado_sin_nombre_37"/><linearGradient id="Degradado_sin_nombre_37-5" x1="16.69" y1="138.77" x2="203.05" y2="138.77" xlink:href="#Degradado_sin_nombre_37"/><linearGradient id="Degradado_sin_nombre_10-2" x1="402.09" y1="154.32" x2="458.54" y2="154.32" xlink:href="#Degradado_sin_nombre_10"/><linearGradient id="Degradado_sin_nombre_10-3" x1=".21" y1="46.56" x2="231.77" y2="46.56" xlink:href="#Degradado_sin_nombre_10"/></defs><g class="cls-7"><g id="Capa_1"><g class="cls-6"><path class="cls-16" d="M206.3,176.26c-8.06-2.22-16.03-4.73-24.02-7.23-3.99-1.31-7.94-2.5-11.9-3.75l-2.96-.93-2.99-.82-5.97-1.63c-15.96-4.16-32.29-6.45-48.57-6.08l-3.05.04c-1.02-.01-2.03.14-3.04.21l-6.08.51c-1.02.05-2.02.22-3.03.37l-3.02.45-3.02.45-1.51.22-1.5.32c-3.98.9-8.01,1.6-11.92,2.82l-5.92,1.66-5.83,1.98c-15.54,5.4-30.46,12.79-45.19,20.73,13.2-10.28,27.67-19.12,43.33-25.62l5.88-2.42,6.05-2c4-1.46,8.19-2.31,12.31-3.38l1.55-.38,1.58-.27,3.16-.54,3.16-.53c1.05-.18,2.1-.38,3.17-.45l6.38-.58c1.07-.07,2.13-.24,3.19-.24l3.2-.06c17.09-.37,34.14,2.47,50.17,7.77l5.99,2.04,2.99,1.02c.98.37,1.95.79,2.93,1.18,3.88,1.61,7.81,3.15,11.62,4.81,7.64,3.34,15.3,6.67,22.87,10.29Z"/></g><g class="cls-6"><path class="cls-10" d="M359.69,74.77c7.24-2.06,14.48-3.57,21.72-5,7.25-1.41,14.5-2.67,21.77-3.82,7.27-1.15,14.56-2.18,21.9-3.04,7.34-.84,14.72-1.57,22.24-1.73-6.95,2.89-14.08,5.04-21.27,6.91-7.2,1.84-14.48,3.33-21.82,4.48-7.34,1.15-14.73,1.97-22.15,2.41-7.43.41-14.89.5-22.38-.21Z"/></g><path class="cls-5" d="M7.93,104.74C19.85,55.91,65.22,22.42,115.17,16.06c32.41-4.23,65.81,2.71,95.05,16.81,8.46,3.92,16.46,8.49,24.2,13.5,4.45,2.83,13.96,9.45,18.39,12.45,41.11,28,85.68,46.92,136.18,56.06,20.11,3.74,39.95,6.03,61.38,7.49-12.7,19.58-31.67,33.52-52.08,44.23-64.3,33.31-147,21.63-205.41-19.31-6.24-4.35-17.02-12.51-22.98-16.85-52.58-39.4-98.21-45.61-161.97-25.69h0Z"/><path class="cls-2" d="M409.22,128.27c3.04-2.88,6.01-5.86,8.87-8.93-9.78-1.2-19.41-2.66-29.11-4.46-40.28-7.29-76.78-20.83-110.77-40.21-12.85-2.81-25.61-6.33-38.3-10.57-5.08-1.69-16.03-5.47-21.08-6.98-8.81-2.72-17.75-4.94-26.96-6.41-31.98-5.62-66-3.22-96.04,9.66-18.92,8.05-35.87,20.24-49.19,35.27,8.52-1.25,16.76-1.92,24.8-1.92,34.31,0,64.98,11.63,98.45,36.71,5.96,4.34,16.73,12.51,22.98,16.85,17.47,12.24,37.11,21.86,57.78,28.45,56.65,6.83,116.92-8.4,158.58-47.47Z"/><path class="cls-3" d="M390.62,106.09c11.17,2.08,22.52,3.74,34.61,5.08,9.64-11.78,17.53-24.88,22.08-39.63-21.02,4.42-40.73,7.61-61.1,9.48-26.98,2.61-53.11,2.11-78.72-1.24,26.34,12.3,53.86,21.01,83.13,26.31Z"/><path class="cls-4" d="M187.77,154.62c-4.2-2.92-10.3-7.46-15.69-11.46-2.8-2.08-5.41-4.02-7.45-5.51l-.05-.03-.05-.03c-32.24-24.16-60.95-34.93-93.09-34.93-10.38,0-21.39,1.19-33.2,3.51-14.21,19.89-22.4,43.59-21.49,68.71,55.94-36.5,101.54-42.93,162.85-19.31,5.96,2.21,16.14,6.17,23.44,8.82-5.23-3.05-10.33-6.29-15.28-9.76Z"/><g class="cls-6"><path class="cls-11" d="M455.72,132.2c-1.97,5.59-5.05,10.71-8.65,15.4-3.62,4.68-7.82,8.9-12.38,12.64-4.56,3.74-9.5,7-14.68,9.74-5.19,2.73-10.61,5-16.36,6.44,4.45-3.91,9.02-7.37,13.51-10.88,4.5-3.48,8.94-6.95,13.29-10.5,4.35-3.55,8.59-7.2,12.76-11.01,4.18-3.8,8.22-7.78,12.52-11.85Z"/></g><g class="cls-1"><path class="cls-8" d="M254.63,88.75c.69.88.97,1.76.85,2.64-.13.88-.44,1.76-.94,2.64-.5.94-1.1,1.74-1.79,2.41-.69.66-1.45,1.34-2.26,2.03-1.7,1.32-3.49,2.53-5.38,3.63-1.89,1.1-3.84,2.15-5.85,3.16-3.02,1.51-6.12,2.91-9.29,4.2-3.18,1.29-6.43,2.47-9.76,3.54-.75.25-1.9.63-3.44,1.13-1.54.51-3.27,1.06-5.19,1.65-1.92.6-3.88,1.21-5.9,1.84-2.01.63-3.88,1.21-5.61,1.75-1.73.53-3.19.99-4.39,1.37-1.2.38-1.92.6-2.17.66-.13,0-.24.03-.33.09s-.2.13-.33.19c-1.26,1.51-2.5,3.02-3.73,4.53-1.23,1.51-2.37,3.08-3.44,4.72-.38.5-.74,1.05-1.08,1.65-.35.6-.71,1.21-1.09,1.84l-.19.28c.25.06.47.13.66.19.19.06.28.25.28.57l.09.09c-.19.19-.35.36-.47.52-.13.16-.28.3-.47.42-.06.06-.17.08-.33.05-.16-.03-.27-.11-.33-.24-.32-.32-.57-.65-.75-.99-.19-.35-.38-.71-.57-1.09-.13-.25-.14-.52-.05-.8s.2-.58.33-.9c.88-1.64,1.87-3.21,2.97-4.72,1.1-1.51,2.22-3.02,3.35-4.53l.28-.38v-.09l-2.26.57c-1.13.31-2.25.6-3.35.85-1.1.25-2.25.5-3.44.75-.63.13-1.26.22-1.89.28-.63.06-1.23,0-1.79-.19-.38-.19-.69-.41-.94-.66-.06,0-.08-.06-.05-.19.03-.13.08-.22.14-.28.57-.69,1.1-1.1,1.6-1.23,2.01-.57,3.94-1.05,5.8-1.46,1.85-.41,3.76-.93,5.71-1.56.5-.19,1.04-.36,1.6-.52.57-.15,1.13-.33,1.7-.52.38,0,.6-.13.66-.38,1.63-2.01,3.32-4.09,5.05-6.22,1.73-2.14,3.47-4.15,5.24-6.04.88-.88,1.73-1.71,2.55-2.5.82-.79,1.73-1.56,2.74-2.31.06,0,.12-.03.19-.09.5-.31.86-.44,1.08-.38s.49.35.8.85l.47.66c.25.19.36.36.33.52-.03.16-.11.36-.24.61-.32.38-.57.77-.75,1.18s-.41.8-.66,1.18l-1.51,1.89c-.38.51-.74.98-1.09,1.42-.35.44-.58.72-.71.85-.13.19-.28.35-.47.47-.13.13-.25.24-.38.33-.13.09-.22.14-.28.14.75-1.57,1.7-3.21,2.83-4.9.06-.06.09-.22.09-.47-1.76,1.76-3.68,3.77-5.75,6.04-2.07,2.26-3.93,4.37-5.57,6.32.25,0,.41-.03.47-.09,4.59-1.38,9.4-2.81,14.43-4.29,5.03-1.48,9.81-3.1,14.34-4.86,2.95-1.19,5.85-2.42,8.68-3.68,2.83-1.26,5.6-2.67,8.3-4.24,1.45-.82,2.86-1.7,4.24-2.64,1.38-.94,2.67-1.98,3.87-3.11,1.38-1.38,2.17-2.64,2.36-3.77s.01-2.12-.52-2.97c-.54-.85-1.32-1.59-2.36-2.22-1.04-.63-2.12-1.1-3.25-1.42-2.52-.69-5.03-1.14-7.55-1.37-2.52-.22-5.09-.3-7.73-.24-3.21,0-6.35.11-9.43.33-3.08.22-6.19.49-9.34.8-12.14,1.51-24.08,4-35.84,7.45-2.83.88-5.61,1.79-8.35,2.74-2.73.94-5.46,1.95-8.16,3.02-2.01.88-4.02,1.81-6.04,2.78-2.01.97-3.93,2.09-5.75,3.35-.88.69-1.73,1.45-2.55,2.26-.25.25-.41.53-.47.85-.13.32-.28.38-.47.19l-.38-.75c-.19-.25-.36-.5-.52-.75-.16-.25-.33-.53-.52-.85-.25-.31-.25-.66,0-1.04l1.32-1.41c1.07-.94,2.17-1.76,3.3-2.45,1.13-.69,2.33-1.38,3.58-2.07,3.14-1.63,6.35-3.05,9.62-4.24,3.27-1.19,6.57-2.33,9.9-3.4,3.77-1.19,7.51-2.25,11.22-3.16,3.71-.91,7.51-1.74,11.41-2.5,2.7-.57,5.42-1.07,8.16-1.51,2.73-.44,5.49-.82,8.25-1.13,3.83-.44,7.67-.77,11.51-.99,3.83-.22,7.67-.26,11.51-.14,2.39.13,4.73.35,7.03.66,2.29.31,4.61.88,6.93,1.7,1.07.38,2.07.82,3.02,1.32.94.51,1.76,1.2,2.45,2.08.38.5.76.96,1.13,1.37.38.41.72.87,1.04,1.37Z"/><path class="cls-8" d="M261.42,121.86c-.19.19-.39.22-.61.09-.22-.13-.39-.28-.52-.47-.19-.25-.35-.53-.47-.85.13-.63.44-1.37.94-2.22.5-.85.69-1.4.57-1.65-.32-.44-1.21-.38-2.69.19-1.48.57-3.18,1.38-5.09,2.45-1.92,1.07-3.87,2.26-5.85,3.58-1.98,1.32-3.63,2.55-4.95,3.68-.69.63-1.43,1.23-2.22,1.79-.79.57-1.59,1.13-2.4,1.7-.38.38-.72.31-1.04-.19,0-.06-.17-.39-.52-.99-.34-.6-.58-.96-.71-1.08-.13-.31-.06-.66.19-1.04.44-.75.85-1.51,1.23-2.26.38-.75.79-1.48,1.23-2.17,1.01-1.57,2.12-3.06,3.35-4.48,1.23-1.41,2.47-2.81,3.73-4.2.19-.19.41-.38.66-.57s.5-.35.76-.47c.44-.38.85-.28,1.23.28.19.31.35.69.47,1.13.06.13.05.28-.05.47-.09.19-.2.35-.33.47l-1.79,2.17c-.25.31-.61.79-1.08,1.41-.47.63-.98,1.31-1.51,2.03-.54.72-1.09,1.45-1.65,2.17-.57.73-1.04,1.34-1.42,1.84,1.01-.75,2.2-1.63,3.58-2.64,1.38-1.01,2.83-2,4.34-2.97,1.51-.97,3-1.85,4.48-2.64,1.48-.79,2.84-1.37,4.1-1.75,2.2-.63,3.79-.5,4.76.38.98.88,1.59,2.04,1.84,3.49.06.69-.24,1.31-.9,1.84s-1.21,1.02-1.65,1.46Z"/><path class="cls-8" d="M282.45,114.78c-.38.32-.75.63-1.13.95s-.75.63-1.13.94c-1.45,1.26-2.81,2.56-4.1,3.91-1.29,1.35-2.5,2.78-3.63,4.29-.32.31-.57.66-.76,1.04-.19.38-.41.75-.66,1.13-.13.13-.22.31-.28.57.63,0,1.07-.03,1.32-.09,1.26-.31,2.48-.71,3.68-1.18s2.39-.96,3.58-1.46l6.23-2.83c.63-.25,1.1-.41,1.41-.47.25,0,.44.09.57.28.13.13.22.25.28.38.06.13,0,.28-.19.47-.38.38-.66.63-.85.76-1.82,1.26-3.68,2.37-5.56,3.35-1.89.98-3.87,1.81-5.94,2.5-.88.32-1.73.51-2.55.57-1.26.19-2.14-.19-2.64-1.13-.25-.38-.57-.82-.94-1.32-.31-.5-.38-.97-.19-1.42.25-.82.54-1.48.85-1.98.76-1.26,1.64-2.45,2.64-3.58,1.01-1.13,2.04-2.2,3.11-3.21.69-.69,1.38-1.32,2.08-1.89l2.07-1.7.19-.19c.5-.31.88-.44,1.13-.38.25.06.53.35.85.85.13.13.22.27.28.42.06.16.16.3.28.42ZM292.64,105.16c-.07.13-.13.28-.19.47-.07.19-.16.35-.28.47-.51.75-1.09,1.43-1.75,2.03s-1.37,1.15-2.12,1.65c-.51.31-1.01.61-1.51.9s-1.01.58-1.51.9c-.32.19-.63.2-.94.05-.32-.16-.51-.46-.57-.9,0-.13.05-.24.14-.33s.2-.2.33-.33c.38-.31.77-.63,1.18-.94.41-.31.77-.63,1.08-.94.57-.5,1.12-1.04,1.65-1.6s1.05-1.1,1.56-1.6c.31-.19.35-.47.09-.85-.19-.19-.27-.33-.24-.43.03-.09.14-.2.33-.33.13-.06.2-.12.24-.19.03-.06.11-.13.24-.19.25-.38.5-.44.75-.19.25.32.49.63.71.94.22.32.46.63.71.95.06.06.09.22.09.47Z"/><path class="cls-8" d="M306.88,118.18h-.19c-.5-.31-1.02-.46-1.56-.42-.54.03-1.09.14-1.65.33-1.13.38-2.22.87-3.25,1.46-1.04.6-2.06,1.27-3.06,2.03-1.2.88-2.33,1.82-3.4,2.83-1.07,1.01-2.04,2.14-2.92,3.4-.69,1.01-1.23,2.04-1.6,3.11-.06.12-.09.24-.09.33s-.03.24-.09.42l.75-.38c3.4-1.89,6.84-3.63,10.33-5.24,3.49-1.6,7.09-3.03,10.8-4.29,1.01-.31,2.01-.63,3.02-.94s2.04-.53,3.11-.66c.31-.06.79-.09,1.41-.09.19,0,.31.03.38.09.25.38.41.66.47.85.06.06.02.14-.14.24s-.3.14-.42.14c-1.26.51-2.54.98-3.87,1.41-1.32.44-2.61.88-3.87,1.32-3.71,1.38-7.31,2.89-10.8,4.53-3.49,1.63-6.93,3.4-10.33,5.28-.57.31-.88.55-.95.71-.06.16-.06.58,0,1.28.07.5.11.96.14,1.37s.08.86.14,1.37c.38,2.95-.85,4.9-3.68,5.85-2.08.63-4.18.66-6.32.09-.88-.19-1.54-.66-1.98-1.41-.12-.25-.38-.63-.75-1.13-.31-.38-.34-.79-.09-1.23.19-.25.36-.49.52-.71.16-.22.33-.42.52-.61,1.07-1.01,2.15-1.9,3.25-2.69,1.1-.79,2.28-1.56,3.54-2.31.44-.25.87-.5,1.28-.75s.83-.5,1.27-.75c.31-.13.41-.31.28-.57-.19-2.77.72-5.34,2.74-7.73,1.51-1.82,3.16-3.43,4.95-4.81s3.79-2.55,5.99-3.49c.38-.19.77-.33,1.18-.42.41-.09.83-.2,1.27-.33,1.19-.19,2.11.19,2.74,1.13.13.25.28.49.47.71s.35.46.47.71ZM287.45,135.44l-.38.19c-.88.5-1.73,1.02-2.55,1.56-.82.53-1.63,1.08-2.45,1.65-.63.44-1.23.93-1.79,1.46-.57.53-1.16,1.05-1.79,1.56-.13.13-.22.24-.28.33s-.16.2-.28.33c.13.06.22.09.28.09,2.77.69,5.22.31,7.36-1.13.5-.31.93-.71,1.27-1.18s.55-1.02.61-1.65c.06-.51.08-1.02.05-1.56s-.05-1.08-.05-1.65Z"/><path class="cls-8" d="M348.1,121.86c.5-.13.85.03,1.04.47.19.44,0,.82-.57,1.13-.44.13-.75.25-.94.38s-.5.25-.94.38c-2.96,1.07-5.77,2.01-8.44,2.83-2.67.82-5.58,1.48-8.72,1.98-1.07.25-2.12.41-3.16.47-1.04.06-2.09.16-3.16.28-.44.06-.91.06-1.41,0-.51-.06-1.01-.13-1.51-.19-.82-.13-1.41-.47-1.79-1.04s-.76-1.01-1.13-1.32c-.5-.76-.57-1.45-.19-2.08.25-.31.51-.63.76-.94s.53-.63.85-.94c1.76-1.45,3.61-2.77,5.56-3.96,1.95-1.19,4.12-2.04,6.51-2.55.44-.13.86-.22,1.27-.28s.86-.03,1.37.09c.44.13.81.31,1.13.57l.28.28c.19.19.38.41.57.66.13.19.27.36.42.52.16.16.24.3.24.42,0,.07-.13.22-.38.47s-.57.52-.94.8-.79.55-1.23.8c-.44.25-.82.44-1.13.57-.69.25-1.16.18-1.41-.24-.25-.41-.47-.74-.66-.99-.13-.13-.03-.33.28-.61.31-.28.63-.55.94-.8-1.57.51-3.07,1.1-4.48,1.79-1.41.69-2.75,1.45-4.01,2.26-.13.13-.51.41-1.13.85-.63.44-1.2.93-1.7,1.46s-.82,1.02-.94,1.46c-.13.44.22.69,1.04.76,2.58.19,5.09,0,7.55-.57,3.65-.82,6.85-1.54,9.62-2.17,2.76-.63,5.63-1.41,8.58-2.36.31-.13.64-.24.99-.33s.68-.2.99-.33Z"/><path class="cls-8" d="M386.3,121.29c.19,0,.34.06.47.19-.13.38-.25.6-.38.66l-5,2.64-7.45,3.96c-.31.19-.53.47-.66.85-4.59,10.31-10.88,19.46-18.86,27.45-1.26,1.26-2.56,2.42-3.91,3.49-1.35,1.07-2.78,2.04-4.29,2.92-.75.5-1.52.91-2.31,1.23s-1.62.53-2.5.66c-1.19.19-2.08-.19-2.64-1.13-.19-.31-.36-.61-.52-.9s-.3-.58-.42-.9c-.31-.57-.44-1.13-.38-1.7s.19-1.16.38-1.79c.38-1.26.91-2.44,1.6-3.54.69-1.1,1.48-2.19,2.36-3.25,1.76-2.39,3.66-4.61,5.71-6.65,2.04-2.04,4.2-4.01,6.46-5.89,2.83-2.39,5.66-4.61,8.49-6.65,2.83-2.04,5.85-3.98,9.06-5.8.06-.06.13-.11.19-.14.06-.03.13-.11.19-.24l2.07-5.38c-.13-.13-.36-.09-.71.09s-.68.35-.99.47l-7.07,4.06c-1.51.82-3.02,1.6-4.53,2.36-1.51.75-3.08,1.38-4.72,1.89-.44.13-.85.22-1.23.28s-.75.13-1.13.19c-.63.06-1.1-.19-1.41-.75-.19-.38-.38-.72-.57-1.04-.38-.69-.5-1.23-.38-1.6l.1-.19c.57-1.13,1.13-2.12,1.7-2.97s1.19-1.62,1.89-2.31c.69-.69,1.42-1.37,2.17-2.03.75-.66,1.6-1.43,2.55-2.31.31-.25.67-.52,1.08-.8.41-.28.77-.49,1.08-.61.5-.19.91-.06,1.23.38.31.44.41.82.28,1.13.06.06,0,.17-.19.33s-.41.33-.66.52-.52.38-.8.57-.52.35-.71.47c-.82.75-1.53,1.41-2.12,1.98s-1.15,1.12-1.65,1.65c-.5.54-.98,1.1-1.41,1.7-.44.6-.91,1.34-1.42,2.22-.13.19-.25.44-.38.75s.06.38.57.19c1.13-.38,2.23-.82,3.3-1.32,1.07-.5,2.14-1,3.21-1.51l7.07-3.58c.25-.06.69-.28,1.32-.66s1.29-.74,1.98-1.08c.69-.35,1.35-.63,1.98-.85.63-.22,1.07-.2,1.32.05l1.41,2.17c.06.13.03.36-.09.71s-.27.74-.42,1.18c-.16.44-.32.87-.47,1.28-.16.41-.27.74-.33.99l.57-.28c1.19-.57,2.36-1.12,3.49-1.65,1.13-.53,2.33-.96,3.58-1.28.69-.19,1.35-.34,1.98-.47.63-.13,1.26-.25,1.89-.38ZM369.51,131.95c0-.13.02-.22.05-.28.03-.06.08-.16.14-.28l-.47.28c-3.71,2.39-7.26,4.9-10.66,7.55-3.39,2.64-6.66,5.53-9.81,8.68-1.38,1.45-2.69,2.91-3.91,4.39-1.23,1.48-2.37,3.03-3.44,4.67-.5.82-.96,1.62-1.37,2.41-.41.79-.74,1.62-.99,2.5-.13.63-.15.99-.09,1.08.07.09.44.11,1.13.05.69-.06,1.34-.22,1.93-.47.6-.25,1.21-.54,1.84-.85,2.96-1.63,5.75-3.74,8.39-6.32,3.58-3.46,6.79-7.14,9.62-11.04,2.83-3.9,5.38-8.02,7.64-12.36Z"/></g><path class="cls-15" d="M252.22,87.6c.69.88.97,1.76.85,2.64-.13.88-.44,1.76-.94,2.64-.5.94-1.1,1.74-1.79,2.41-.69.66-1.45,1.34-2.26,2.03-1.7,1.32-3.49,2.53-5.38,3.63-1.89,1.1-3.84,2.15-5.85,3.16-3.02,1.51-6.12,2.91-9.29,4.2-3.18,1.29-6.43,2.47-9.76,3.54-.75.25-1.9.63-3.44,1.13-1.54.51-3.27,1.06-5.19,1.65-1.92.6-3.88,1.21-5.9,1.84-2.01.63-3.88,1.21-5.61,1.75-1.73.53-3.19.99-4.39,1.37-1.2.38-1.92.6-2.17.66-.13,0-.24.03-.33.09s-.2.13-.33.19c-1.26,1.51-2.5,3.02-3.73,4.53-1.23,1.51-2.37,3.08-3.44,4.72-.38.5-.74,1.05-1.08,1.65-.35.6-.71,1.21-1.09,1.84l-.19.28c.25.06.47.13.66.19.19.06.28.25.28.57l.09.09c-.19.19-.35.36-.47.52-.13.16-.28.3-.47.42-.06.06-.17.08-.33.05-.16-.03-.27-.11-.33-.24-.32-.32-.57-.65-.75-.99-.19-.35-.38-.71-.57-1.09-.13-.25-.14-.52-.05-.8s.2-.58.33-.9c.88-1.64,1.87-3.21,2.97-4.72,1.1-1.51,2.22-3.02,3.35-4.53l.28-.38v-.09l-2.26.57c-1.13.31-2.25.6-3.35.85-1.1.25-2.25.5-3.44.75-.63.13-1.26.22-1.89.28-.63.06-1.23,0-1.79-.19-.38-.19-.69-.41-.94-.66-.06,0-.08-.06-.05-.19.03-.13.08-.22.14-.28.57-.69,1.1-1.1,1.6-1.23,2.01-.57,3.94-1.05,5.8-1.46,1.85-.41,3.76-.93,5.71-1.56.5-.19,1.04-.36,1.6-.52.57-.15,1.13-.33,1.7-.52.38,0,.6-.13.66-.38,1.63-2.01,3.32-4.09,5.05-6.22,1.73-2.14,3.47-4.15,5.24-6.04.88-.88,1.73-1.71,2.55-2.5.82-.79,1.73-1.56,2.74-2.31.06,0,.12-.03.19-.09.5-.31.86-.44,1.08-.38s.49.35.8.85l.47.66c.25.19.36.36.33.52-.03.16-.11.36-.24.61-.32.38-.57.77-.75,1.18s-.41.8-.66,1.18l-1.51,1.89c-.38.51-.74.98-1.09,1.42-.35.44-.58.72-.71.85-.13.19-.28.35-.47.47-.13.13-.25.24-.38.33-.13.09-.22.14-.28.14.75-1.57,1.7-3.21,2.83-4.9.06-.06.09-.22.09-.47-1.76,1.76-3.68,3.77-5.75,6.04-2.07,2.26-3.93,4.37-5.57,6.32.25,0,.41-.03.47-.09,4.59-1.38,9.4-2.81,14.43-4.29,5.03-1.48,9.81-3.1,14.34-4.86,2.95-1.19,5.85-2.42,8.68-3.68,2.83-1.26,5.6-2.67,8.3-4.24,1.45-.82,2.86-1.7,4.24-2.64,1.38-.94,2.67-1.98,3.87-3.11,1.38-1.38,2.17-2.64,2.36-3.77s.01-2.12-.52-2.97c-.54-.85-1.32-1.59-2.36-2.22-1.04-.63-2.12-1.1-3.25-1.42-2.52-.69-5.03-1.14-7.55-1.37-2.52-.22-5.09-.3-7.73-.24-3.21,0-6.35.11-9.43.33-3.08.22-6.19.49-9.34.8-12.14,1.51-24.08,4-35.84,7.45-2.83.88-5.61,1.79-8.35,2.74-2.73.94-5.46,1.95-8.16,3.02-2.01.88-4.02,1.81-6.04,2.78-2.01.97-3.93,2.09-5.75,3.35-.88.69-1.73,1.45-2.55,2.26-.25.25-.41.53-.47.85-.13.32-.28.38-.47.19l-.38-.75c-.19-.25-.36-.5-.52-.75-.16-.25-.33-.53-.52-.85-.25-.31-.25-.66,0-1.04l1.32-1.41c1.07-.94,2.17-1.76,3.3-2.45,1.13-.69,2.33-1.38,3.58-2.07,3.14-1.63,6.35-3.05,9.62-4.24,3.27-1.19,6.57-2.33,9.9-3.4,3.77-1.19,7.51-2.25,11.22-3.16,3.71-.91,7.51-1.74,11.41-2.5,2.7-.57,5.42-1.07,8.16-1.51,2.73-.44,5.49-.82,8.25-1.13,3.83-.44,7.67-.77,11.51-.99,3.83-.22,7.67-.26,11.51-.14,2.39.13,4.73.35,7.03.66,2.29.31,4.61.88,6.93,1.7,1.07.38,2.07.82,3.02,1.32.94.51,1.76,1.2,2.45,2.08.38.5.76.96,1.13,1.37.38.41.72.87,1.04,1.37Z"/><path class="cls-15" d="M259.01,120.71c-.19.19-.39.22-.61.09-.22-.13-.39-.28-.52-.47-.19-.25-.35-.53-.47-.85.13-.63.44-1.37.94-2.22.5-.85.69-1.4.57-1.65-.32-.44-1.21-.38-2.69.19-1.48.57-3.18,1.38-5.09,2.45-1.92,1.07-3.87,2.26-5.85,3.58-1.98,1.32-3.63,2.55-4.95,3.68-.69.63-1.43,1.23-2.22,1.79-.79.57-1.59,1.13-2.4,1.7-.38.38-.72.31-1.04-.19,0-.06-.17-.39-.52-.99-.34-.6-.58-.96-.71-1.08-.13-.31-.06-.66.19-1.04.44-.75.85-1.51,1.23-2.26.38-.75.79-1.48,1.23-2.17,1.01-1.57,2.12-3.06,3.35-4.48,1.23-1.41,2.47-2.81,3.73-4.2.19-.19.41-.38.66-.57s.5-.35.76-.47c.44-.38.85-.28,1.23.28.19.31.35.69.47,1.13.06.13.05.28-.05.47-.09.19-.2.35-.33.47l-1.79,2.17c-.25.31-.61.79-1.08,1.41-.47.63-.98,1.31-1.51,2.03-.54.72-1.09,1.45-1.65,2.17-.57.73-1.04,1.34-1.42,1.84,1.01-.75,2.2-1.63,3.58-2.64,1.38-1.01,2.83-2,4.34-2.97,1.51-.97,3-1.85,4.48-2.64,1.48-.79,2.84-1.37,4.1-1.75,2.2-.63,3.79-.5,4.76.38.98.88,1.59,2.04,1.84,3.49.06.69-.24,1.31-.9,1.84s-1.21,1.02-1.65,1.46Z"/><path class="cls-15" d="M280.04,113.64c-.38.32-.75.63-1.13.95s-.75.63-1.13.94c-1.45,1.26-2.81,2.56-4.1,3.91-1.29,1.35-2.5,2.78-3.63,4.29-.32.31-.57.66-.76,1.04-.19.38-.41.75-.66,1.13-.13.13-.22.31-.28.57.63,0,1.07-.03,1.32-.09,1.26-.31,2.48-.71,3.68-1.18s2.39-.96,3.58-1.46l6.23-2.83c.63-.25,1.1-.41,1.41-.47.25,0,.44.09.57.28.13.13.22.25.28.38.06.13,0,.28-.19.47-.38.38-.66.63-.85.76-1.82,1.26-3.68,2.37-5.56,3.35-1.89.98-3.87,1.81-5.94,2.5-.88.32-1.73.51-2.55.57-1.26.19-2.14-.19-2.64-1.13-.25-.38-.57-.82-.94-1.32-.31-.5-.38-.97-.19-1.42.25-.82.54-1.48.85-1.98.76-1.26,1.64-2.45,2.64-3.58,1.01-1.13,2.04-2.2,3.11-3.21.69-.69,1.38-1.32,2.08-1.89l2.07-1.7.19-.19c.5-.31.88-.44,1.13-.38.25.06.53.35.85.85.13.13.22.27.28.42.06.16.16.3.28.42ZM290.23,104.02c-.07.13-.13.28-.19.47-.07.19-.16.35-.28.47-.51.75-1.09,1.43-1.75,2.03s-1.37,1.15-2.12,1.65c-.51.31-1.01.61-1.51.9s-1.01.58-1.51.9c-.32.19-.63.2-.94.05-.32-.16-.51-.46-.57-.9,0-.13.05-.24.14-.33s.2-.2.33-.33c.38-.31.77-.63,1.18-.94.41-.31.77-.63,1.08-.94.57-.5,1.12-1.04,1.65-1.6s1.05-1.1,1.56-1.6c.31-.19.35-.47.09-.85-.19-.19-.27-.33-.24-.43.03-.09.14-.2.33-.33.13-.06.2-.12.24-.19.03-.06.11-.13.24-.19.25-.38.5-.44.75-.19.25.32.49.63.71.94.22.32.46.63.71.95.06.06.09.22.09.47Z"/><path class="cls-15" d="M304.47,117.03h-.19c-.5-.31-1.02-.46-1.56-.42-.54.03-1.09.14-1.65.33-1.13.38-2.22.87-3.25,1.46-1.04.6-2.06,1.27-3.06,2.03-1.2.88-2.33,1.82-3.4,2.83-1.07,1.01-2.04,2.14-2.92,3.4-.69,1.01-1.23,2.04-1.6,3.11-.06.12-.09.24-.09.33s-.03.24-.09.42l.75-.38c3.4-1.89,6.84-3.63,10.33-5.24,3.49-1.6,7.09-3.03,10.8-4.29,1.01-.31,2.01-.63,3.02-.94s2.04-.53,3.11-.66c.31-.06.79-.09,1.41-.09.19,0,.31.03.38.09.25.38.41.66.47.85.06.06.02.14-.14.24s-.3.14-.42.14c-1.26.51-2.54.98-3.87,1.41-1.32.44-2.61.88-3.87,1.32-3.71,1.38-7.31,2.89-10.8,4.53-3.49,1.63-6.93,3.4-10.33,5.28-.57.31-.88.55-.95.71-.06.16-.06.58,0,1.28.07.5.11.96.14,1.37s.08.86.14,1.37c.38,2.95-.85,4.9-3.68,5.85-2.08.63-4.18.66-6.32.09-.88-.19-1.54-.66-1.98-1.41-.12-.25-.38-.63-.75-1.13-.31-.38-.34-.79-.09-1.23.19-.25.36-.49.52-.71.16-.22.33-.42.52-.61,1.07-1.01,2.15-1.9,3.25-2.69,1.1-.79,2.28-1.56,3.54-2.31.44-.25.87-.5,1.28-.75s.83-.5,1.27-.75c.31-.13.41-.31.28-.57-.19-2.77.72-5.34,2.74-7.73,1.51-1.82,3.16-3.43,4.95-4.81,1.79-1.38,3.79-2.55,5.99-3.49.38-.19.77-.33,1.18-.42.41-.09.83-.2,1.27-.33,1.19-.19,2.11.19,2.74,1.13.13.25.28.49.47.71s.35.46.47.71ZM285.04,134.29l-.38.19c-.88.5-1.73,1.02-2.55,1.56-.82.53-1.63,1.08-2.45,1.65-.63.44-1.23.93-1.79,1.46-.57.53-1.16,1.05-1.79,1.56-.13.13-.22.24-.28.33s-.16.2-.28.33c.13.06.22.09.28.09,2.77.69,5.22.31,7.36-1.13.5-.31.93-.71,1.27-1.18s.55-1.02.61-1.65c.06-.51.08-1.02.05-1.56s-.05-1.08-.05-1.65Z"/><path class="cls-15" d="M345.69,120.71c.5-.13.85.03,1.04.47.19.44,0,.82-.57,1.13-.44.13-.75.25-.94.38s-.5.25-.94.38c-2.96,1.07-5.77,2.01-8.44,2.83-2.67.82-5.58,1.48-8.72,1.98-1.07.25-2.12.41-3.16.47-1.04.06-2.09.16-3.16.28-.44.06-.91.06-1.41,0-.51-.06-1.01-.13-1.51-.19-.82-.13-1.41-.47-1.79-1.04s-.76-1.01-1.13-1.32c-.5-.76-.57-1.45-.19-2.08.25-.31.51-.63.76-.94s.53-.63.85-.94c1.76-1.45,3.61-2.77,5.56-3.96,1.95-1.19,4.12-2.04,6.51-2.55.44-.13.86-.22,1.27-.28s.86-.03,1.37.09c.44.13.81.31,1.13.57l.28.28c.19.19.38.41.57.66.13.19.27.36.42.52.16.16.24.3.24.42,0,.07-.13.22-.38.47-.25.25-.57.52-.94.8s-.79.55-1.23.8c-.44.25-.82.44-1.13.57-.69.25-1.16.18-1.41-.24-.25-.41-.47-.74-.66-.99-.13-.13-.03-.33.28-.61.31-.28.63-.55.94-.8-1.57.51-3.07,1.1-4.48,1.79-1.41.69-2.75,1.45-4.01,2.26-.13.13-.51.41-1.13.85-.63.44-1.2.93-1.7,1.46-.5.53-.82,1.02-.94,1.46-.13.44.22.69,1.04.76,2.58.19,5.09,0,7.55-.57,3.65-.82,6.85-1.54,9.62-2.17,2.76-.63,5.63-1.41,8.58-2.36.31-.13.64-.24.99-.33.35-.09.68-.2.99-.33Z"/><path class="cls-15" d="M383.89,120.14c.19,0,.34.06.47.19-.13.38-.25.6-.38.66l-5,2.64-7.45,3.96c-.31.19-.53.47-.66.85-4.59,10.31-10.88,19.46-18.86,27.45-1.26,1.26-2.56,2.42-3.91,3.49-1.35,1.07-2.78,2.04-4.29,2.92-.75.5-1.52.91-2.31,1.23s-1.62.53-2.5.66c-1.19.19-2.08-.19-2.64-1.13-.19-.31-.36-.61-.52-.9s-.3-.58-.42-.9c-.31-.57-.44-1.13-.38-1.7s.19-1.16.38-1.79c.38-1.26.91-2.44,1.6-3.54.69-1.1,1.48-2.19,2.36-3.25,1.76-2.39,3.66-4.61,5.71-6.65,2.04-2.04,4.2-4.01,6.46-5.89,2.83-2.39,5.66-4.61,8.49-6.65,2.83-2.04,5.85-3.98,9.06-5.8.06-.06.13-.11.19-.14.06-.03.13-.11.19-.24l2.07-5.38c-.13-.13-.36-.09-.71.09s-.68.35-.99.47l-7.07,4.06c-1.51.82-3.02,1.6-4.53,2.36-1.51.75-3.08,1.38-4.72,1.89-.44.13-.85.22-1.23.28l-1.13.19c-.63.06-1.1-.19-1.41-.75-.19-.38-.38-.72-.57-1.04-.38-.69-.5-1.23-.38-1.6l.1-.19c.57-1.13,1.13-2.12,1.7-2.97.57-.85,1.19-1.62,1.89-2.31.69-.69,1.42-1.37,2.17-2.03.75-.66,1.6-1.43,2.55-2.31.31-.25.67-.52,1.08-.8.41-.28.77-.49,1.08-.61.5-.19.91-.06,1.23.38.31.44.41.82.28,1.13.06.06,0,.17-.19.33s-.41.33-.66.52-.52.38-.8.57-.52.35-.71.47c-.82.75-1.53,1.41-2.12,1.98-.6.57-1.15,1.12-1.65,1.65-.5.54-.98,1.1-1.41,1.7-.44.6-.91,1.34-1.42,2.22-.13.19-.25.44-.38.75s.06.38.57.19c1.13-.38,2.23-.82,3.3-1.32,1.07-.5,2.14-1,3.21-1.51l7.07-3.58c.25-.06.69-.28,1.32-.66s1.29-.74,1.98-1.08c.69-.35,1.35-.63,1.98-.85.63-.22,1.07-.2,1.32.05l1.41,2.17c.06.13.03.36-.09.71s-.27.74-.42,1.18c-.16.44-.32.87-.47,1.28-.16.41-.27.74-.33.99l.57-.28c1.19-.57,2.36-1.12,3.49-1.65,1.13-.53,2.33-.96,3.58-1.28.69-.19,1.35-.34,1.98-.47.63-.13,1.26-.25,1.89-.38ZM367.1,130.8c0-.13.02-.22.05-.28.03-.06.08-.16.14-.28l-.47.28c-3.71,2.39-7.26,4.9-10.66,7.55-3.39,2.64-6.66,5.53-9.81,8.68-1.38,1.45-2.69,2.91-3.91,4.39-1.23,1.48-2.37,3.03-3.44,4.67-.5.82-.96,1.62-1.37,2.41-.41.79-.74,1.62-.99,2.5-.13.63-.15.99-.09,1.08.07.09.44.11,1.13.05.69-.06,1.34-.22,1.93-.47.6-.25,1.21-.54,1.84-.85,2.96-1.63,5.75-3.74,8.39-6.32,3.58-3.46,6.79-7.14,9.62-11.04,2.83-3.9,5.38-8.02,7.64-12.36Z"/><text class="cls-9" transform="translate(0 219.61)"><tspan class="cls-14" x="0" y="0">Salón de Bell</tspan><tspan class="cls-13" x="378.89" y="0">e</tspan><tspan class="cls-14" x="410.68" y="0">za</tspan></text><g class="cls-6"><path class="cls-12" d="M3.46,93.13c2-11.25,6.17-22.16,11.94-32.18,5.83-9.99,13.26-19.1,21.91-26.89,8.6-7.85,18.41-14.33,28.8-19.59,10.43-5.21,21.55-9.01,32.95-11.45,5.71-1.2,11.5-1.95,17.29-2.49l4.36-.28,2.18-.13,2.18-.05c1.45-.02,2.91-.08,4.36-.07l4.36.1c5.8.25,11.6.73,17.33,1.61,2.88.37,5.72.94,8.57,1.45l4.24.95,2.11.48,2.1.55c5.61,1.41,11.11,3.17,16.53,5.14,5.4,2.01,10.7,4.29,15.89,6.75,5.11,2.6,10.24,5.16,15.14,8.15,2.45,1.48,4.87,3.01,7.25,4.6,2.37,1.61,4.7,3.26,7,4.95-2.48-1.4-4.99-2.77-7.51-4.08-2.52-1.33-5.05-2.61-7.61-3.83-2.57-1.21-5.13-2.41-7.73-3.52-2.62-1.11-5.23-2.19-7.86-3.26-10.5-4.17-21.3-7.49-32.29-9.81-5.49-1.15-11.03-2.07-16.59-2.71-5.55-.7-11.14-1-16.72-1.09-5.58-.11-11.15.15-16.7.6-5.54.57-11.06,1.35-16.49,2.52-5.45,1.11-10.83,2.55-16.1,4.32-5.28,1.77-10.42,3.91-15.46,6.27-10.09,4.71-19.53,10.77-28.16,17.83-4.32,3.54-8.33,7.44-12.12,11.54-3.79,4.11-7.28,8.51-10.43,13.16-6.37,9.26-11.28,19.55-14.71,30.44Z"/></g></g></g></svg>