<svg xmlns="http://www.w3.org/2000/svg" viewBox="0 0 64 64" aria-hidden="true">
  <defs>
    <linearGradient id="g" x1="0" y1="0" x2="1" y2="1">
      <stop offset="0" stop-color="#6b21a8"/>
      <stop offset="1" stop-color="#ec4899"/>
    </linearGradient>
  </defs>
  <rect x="2" y="2" width="60" height="60" rx="14" fill="url(#g)"/>
  <g fill="#fff" transform="translate(12,12)">
    <path d="M20 0c1.1 0 2 .9 2 2v8l4 4 6-6a2 2 0 1 1 2.8 2.8l-6 6 4 4 6-6a2 2 0 1 1 2.8 2.8l-8.5 8.5a6 6 0 0 1-8.5 0L22 24l-4 4v8a2 2 0 1 1-4 0v-8a6 6 0 0 1 1.8-4.3L20 22l-2.3-2.3A6 6 0 0 1 16 15.3V2a2 2 0 0 1 2-2h2z"/>
  </g>
</svg>
